<?xml version="1.0" encoding="UTF-8" standalone="no"?> <svg width="120" height="120" viewBox="0 0 120 120" fill="none" xmlns="http://www.w3.org/2000/svg">
<path d="M52.1333 56.7064C49.3719 56.7064 47.1333 54.4679 47.1333 51.7064V39.3022C47.1333 37.9424 46 37.7064 45 37.7064C42 37.7064 40.4231 33.6136 42.4773 31.1575L56.1646 14.7922C58.1632 12.4026 61.8368 12.4026 63.8354 14.7922L77.5227 31.1575C79.5769 33.6136 78 37.7064 75 37.7064C74 37.7064 72.8667 37.9824 72.8667 39.3022V51.7064C72.8667 54.4679 70.6281 56.7064 67.8667 56.7064H52.1333Z" fill="black"/>
<path d="M54.1219 72H58V78.5H54.1219C52.9748 78.5 52.2526 78.0808 51.7915 77.549C51.2953 76.9769 51 76.1495 51 75.25C51 74.3505 51.2953 73.5231 51.7915 72.951C52.2526 72.4192 52.9748 72 54.1219 72Z" fill="black"/>
<path d="M62 89V82.5H65.878C67.0252 82.5 67.7474 82.9192 68.2085 83.451C68.7047 84.0231 69 84.8505 69 85.75C69 86.6495 68.7047 87.4769 68.2085 88.049C67.7474 88.5808 67.0252 89 65.878 89H62Z" fill="black"/>
<path fill-rule="evenodd" clip-rule="evenodd" d="M110 92.7326V66.6788C102.026 66.236 95.9953 60.5105 95.1118 52.7064H76.8117C76.3143 57.2064 72.4992 60.7064 67.8667 60.7064H52.1333C47.5008 60.7064 43.6857 57.2064 43.1883 52.7064H24.8882C24.0047 60.5105 17.974 66.236 10 66.6788V92.7326C18.174 93.1617 24.4754 98.8384 24.9688 106.706H95.0312C95.5246 98.8384 101.826 93.1617 110 92.7326ZM60 64C61.1046 64 62 64.8954 62 66V68H68.8049C69.9094 68 70.8049 68.8954 70.8049 70C70.8049 71.1046 69.9094 72 68.8049 72H62V78.5H65.878C68.1456 78.5 69.9843 79.3933 71.2305 80.8303C72.4416 82.2269 73 84.0245 73 85.75C73 87.4755 72.4416 89.2731 71.2305 90.6697C69.9843 92.1067 68.1456 93 65.878 93H62V95C62 96.1046 61.1046 97 60 97C58.8954 97 58 96.1046 58 95V93H50.474C49.3694 93 48.474 92.1046 48.474 91C48.474 89.8954 49.3694 89 50.474 89H58V82.5H54.1219C51.8544 82.5 50.0157 81.6067 48.7695 80.1697C47.5584 78.7731 47 76.9755 47 75.25C47 73.5245 47.5584 71.7269 48.7695 70.3303C50.0157 68.8933 51.8544 68 54.1219 68H58V66C58 64.8954 58.8954 64 60 64Z" fill="black"/>
<path d="M99.043 106.706H105C107.761 106.706 110 104.468 110 101.706V96.7388C103.834 97.1418 99.5152 101.267 99.043 106.706Z" fill="black"/>
<path d="M20.957 106.706C20.4848 101.267 16.1655 97.1418 10 96.7388V101.706C10 104.468 12.2386 106.706 15 106.706H20.957Z" fill="black"/>
<path d="M10 62.6708C15.7508 62.2567 20.0275 58.2768 20.8545 52.7064H15C12.2386 52.7064 10 54.945 10 57.7064V62.6708Z" fill="black"/>
<path d="M99.1455 52.7064C99.9725 58.2768 104.249 62.2567 110 62.6708V57.7064C110 54.945 107.761 52.7064 105 52.7064H99.1455Z" fill="black"/>
</svg>
